# xmcd
#
# Track frame offsets: 
#        150
#        22645
#        34333
#        48311
#        62476
#
# Disc length: 1018 seconds
#
# Revision: 0
# Processed by: cddbd v1.5.2PL0 Copyright (c) Steve Scherf et al.
# Submitted via: ExactAudioCopy v0.99pb4
#
DISCID=3203f805
DTITLE=Joe Buck Yourself - Gory Gory Hallelujah
DYEAR=1900
DGENRE=
TTITLE0=Demon In My Head
TTITLE1=Rock City
TTITLE2=Drug Train
TTITLE3=Music City's Dead
TTITLE4=Give It Up
EXTD=
EXTT0=
EXTT1=
EXTT2=
EXTT3=
EXTT4=
PLAYORDER=
